<?xml version="1.0" encoding="utf-8"?>
<!-- Generator: Adobe Illustrator 28.1.0, SVG Export Plug-In . SVG Version: 6.00 Build 0)  -->
<svg version="1.1" id="Warstwa_1" xmlns="http://www.w3.org/2000/svg" xmlns:xlink="http://www.w3.org/1999/xlink" x="0px" y="0px"
	 viewBox="0 0 340 103.1" style="enable-background:new 0 0 340 103.1;" xml:space="preserve">
<style type="text/css">
	.st0{fill:#33323A;}
</style>
<path class="st0" d="M68.6,34.7l-2.7,4.7l6.8,11.9c0.1,0.1,0.1,0.2,0.1,0.3s0,0.2-0.1,0.3l-6.8,11.9l2.7,4.7l9.7-16.9L68.6,34.7
	L68.6,34.7z M64.9,38.8l2.7-4.7h-5.4l-2.7,4.7H64.9L64.9,38.8z M59.4,40l6.3,11h5.4l-6.3-11H59.4z M64.9,63.1l6.3-11h-5.4l-6.3,11
	H64.9z M59.4,64.4l2.7,4.7h5.4l-2.7-4.7H59.4L59.4,64.4z M41.1,70.2c-0.1,0-0.2,0-0.3-0.1s-0.2-0.1-0.2-0.2L33.7,58h-5.4L38,74.9
	h19.5l-2.7-4.7H41.1L41.1,70.2z M55.8,69.6l2.7,4.7l2.7-4.7l-2.7-4.7L55.8,69.6L55.8,69.6z M57.5,64.3H44.8L42.1,69h12.6L57.5,64.3z
	 M43.8,63.7l-6.3-11l-2.7,4.7l6.3,11C41.1,68.4,43.8,63.7,43.8,63.7z M28.3,56.8h5.4l2.7-4.7H31C31,52.1,28.3,56.8,28.3,56.8z
	 M40.5,33.3c0-0.1,0.1-0.2,0.2-0.2c0.1,0,0.2-0.1,0.3-0.1h13.7l2.7-4.7H38l-9.7,16.9h5.4L40.5,33.3L40.5,33.3z M36.4,51.1l-2.7-4.7
	h-5.4l2.7,4.7C31,51.1,36.4,51.1,36.4,51.1z M41,34.8l-6.3,11l2.7,4.7l6.3-11L41,34.8z M54.8,34.2H42.1l2.7,4.7h12.7L54.8,34.2z
	 M58.5,38.3l2.7-4.7l-2.7-4.7l-2.7,4.7L58.5,38.3z"/>
<path class="st0" d="M176.5,42.5c-3.6,0-6.5,1.7-8.4,4.7h-0.5v-3.7h-4.4v26.7h4.4V54.6c0-4.7,3.9-8.1,8.4-8.1s7.3,3.3,7.3,7.8v16
	h4.4v-16C187.6,47.5,183.3,42.5,176.5,42.5L176.5,42.5z"/>
<path class="st0" d="M144.5,42.4c-8.4,0-14.4,6-14.4,14.4s5.9,14.5,14.4,14.5s14.4-6,14.4-14.5S152.8,42.4,144.5,42.4z M144.5,67.3
	c-5.8,0-10-4.4-10-10.5s4.1-10.4,10-10.4s9.9,4.4,9.9,10.4S150.2,67.3,144.5,67.3z"/>
<path class="st0" d="M122.1,58.7c-1.8,5-7,8.7-12.7,8.7c-8.4,0-14.5-6.6-14.5-15.8s6-15.7,14.5-15.7c5.9,0,11.2,3.9,12.8,9.3h4.9
	c-1.8-7.8-9.3-13.6-17.7-13.6c-11.2,0-19.3,8.4-19.3,20c-0.1,11.6,8.1,20,19.3,20c8.4,0,15.8-5.4,17.6-12.9L122.1,58.7L122.1,58.7z"
	/>
<path class="st0" d="M199.5,63.2V47h6.9v-3.5h-6.9l0.1-8.6h-3.4l-1,8.6h-4.3V47h4.3v16.4c0,4.7,2.9,7.9,7.4,7.9
	c1.3,0,3.1-0.3,4.3-0.7V67c-1,0.3-2.4,0.5-3.2,0.5C201.1,67.5,199.5,65.7,199.5,63.2L199.5,63.2z"/>
<path class="st0" d="M274.7,59.1c0,4.7-3.9,8.1-8.4,8.1s-7.2-3.2-7.2-7.8V43.5h-4.4v15.9c0,6.8,4.3,11.8,11.1,11.8
	c3.5,0,6.5-1.7,8.4-4.6h0.5v3.7h4.4V43.5h-4.4L274.7,59.1L274.7,59.1z"/>
<path class="st0" d="M238.1,42.5c-3.6,0-6.5,1.7-8.4,4.7h-0.5v-3.7h-4.4v26.7h4.4V54.6c0-4.7,3.9-8.1,8.4-8.1s7.3,3.3,7.3,7.8v16
	h4.4v-16C249.3,47.5,244.9,42.5,238.1,42.5L238.1,42.5z"/>
<rect x="212.9" y="43.5" class="st0" width="4.4" height="26.7"/>
<path class="st0" d="M311.7,56.6c0-8.2-5.9-14.1-14-14.1s-14.2,5.9-14.2,14.1c0,8.6,6,14.8,14.4,14.8c5.9,0,10.8-2.8,12.9-7.3
	l-3.6-1.8c-1.7,3.2-5.2,5.2-9.2,5.2c-5.5,0-9.4-3.6-10-9h23.7C311.7,57.7,311.7,57.1,311.7,56.6z M288,54.5c0.7-4.8,4.5-8,9.4-8
	s8.8,3.2,9.6,8H288L288,54.5z"/>
<path class="st0" d="M215.1,32.2c-1.9,0-3.2,1.3-3.2,3.1s1.3,3.2,3.2,3.2s3.1-1.3,3.1-3.2S216.9,32.2,215.1,32.2z"/>
</svg>
